REM DIRINDEX 1\2,1\3,1\4,1\6,1\5\7,1\5\8
REM DIRNAME folder01,folder02,folder03,folder04,folder05,folder06,folder07,folder08
TITLE ""
FILE "DB4500_5th_3B_19.mp3" MP3
  TRACK 01 AUDIO
    TITLE "0:"
    INDEX 01 00:00:00
  TRACK 02 AUDIO
    TITLE "2:cjc114_2286"
    INDEX 01 00:00:05
  TRACK 03 AUDIO
    TITLE "0:"
    INDEX 01 00:01:13
  TRACK 04 AUDIO
    TITLE "3:cjc114_2287"
    INDEX 01 00:01:36
  TRACK 05 AUDIO
    TITLE "0:"
    INDEX 01 00:02:59
  TRACK 06 AUDIO
    TITLE "4:cjc114_2288"
    INDEX 01 00:03:08
  TRACK 07 AUDIO
    TITLE "0:"
    INDEX 01 00:06:57
  TRACK 08 AUDIO
    TITLE "2:cjc114_2289"
    INDEX 01 00:07:29
  TRACK 09 AUDIO
    TITLE "0:"
    INDEX 01 00:08:34
  TRACK 10 AUDIO
    TITLE "3:cjc114_2290"
    INDEX 01 00:08:56
  TRACK 11 AUDIO
    TITLE "0:"
    INDEX 01 00:10:04
  TRACK 12 AUDIO
    TITLE "4:cjc114_2291"
    INDEX 01 00:10:27
  TRACK 13 AUDIO
    TITLE "0:"
    INDEX 01 00:14:11
  TRACK 14 AUDIO
    TITLE "2:cjc114_2292"
    INDEX 01 00:14:62
  TRACK 15 AUDIO
    TITLE "0:"
    INDEX 01 00:16:00
  TRACK 16 AUDIO
    TITLE "3:cjc114_2293"
    INDEX 01 00:16:24
  TRACK 17 AUDIO
    TITLE "0:"
    INDEX 01 00:17:47
  TRACK 18 AUDIO
    TITLE "4:cjc114_2294"
    INDEX 01 00:17:70
  TRACK 19 AUDIO
    TITLE "0:"
    INDEX 01 00:20:69
  TRACK 20 AUDIO
    TITLE "2:cjc114_2295"
    INDEX 01 00:21:45
  TRACK 21 AUDIO
    TITLE "0:"
    INDEX 01 00:22:66
  TRACK 22 AUDIO
    TITLE "3:cjc114_2296"
    INDEX 01 00:23:12
  TRACK 23 AUDIO
    TITLE "0:"
    INDEX 01 00:24:39
  TRACK 24 AUDIO
    TITLE "4:cjc114_2297"
    INDEX 01 00:24:63
  TRACK 25 AUDIO
    TITLE "0:"
    INDEX 01 00:29:34
  TRACK 26 AUDIO
    TITLE "2:cjc114_2298"
    INDEX 01 00:30:08
  TRACK 27 AUDIO
    TITLE "0:"
    INDEX 01 00:31:18
  TRACK 28 AUDIO
    TITLE "3:cjc114_2299"
    INDEX 01 00:31:41
  TRACK 29 AUDIO
    TITLE "0:"
    INDEX 01 00:32:29
  TRACK 30 AUDIO
    TITLE "4:cjc114_2300"
    INDEX 01 00:32:50
  TRACK 31 AUDIO
    TITLE "0:"
    INDEX 01 00:35:63
  TRACK 32 AUDIO
    TITLE "2:cjc114_2301"
    INDEX 01 00:36:31
  TRACK 33 AUDIO
    TITLE "0:"
    INDEX 01 00:37:48
  TRACK 34 AUDIO
    TITLE "3:cjc114_2302"
    INDEX 01 00:37:71
  TRACK 35 AUDIO
    TITLE "0:"
    INDEX 01 00:39:23
  TRACK 36 AUDIO
    TITLE "4:cjc114_2303"
    INDEX 01 00:39:47
  TRACK 37 AUDIO
    TITLE "0:"
    INDEX 01 00:42:61
  TRACK 38 AUDIO
    TITLE "2:cjc114_2304"
    INDEX 01 00:43:35
  TRACK 39 AUDIO
    TITLE "0:"
    INDEX 01 00:44:40
  TRACK 40 AUDIO
    TITLE "3:cjc114_2305"
    INDEX 01 00:44:63
  TRACK 41 AUDIO
    TITLE "0:"
    INDEX 01 00:45:53
  TRACK 42 AUDIO
    TITLE "4:cjc114_2306"
    INDEX 01 00:46:02
  TRACK 43 AUDIO
    TITLE "0:"
    INDEX 01 00:49:41
  TRACK 44 AUDIO
    TITLE "2:cjc114_2307"
    INDEX 01 00:50:13
  TRACK 45 AUDIO
    TITLE "0:"
    INDEX 01 00:51:05
  TRACK 46 AUDIO
    TITLE "3:cjc114_2308"
    INDEX 01 00:51:28
  TRACK 47 AUDIO
    TITLE "0:"
    INDEX 01 00:52:26
  TRACK 48 AUDIO
    TITLE "4:cjc114_2309"
    INDEX 01 00:52:51
  TRACK 49 AUDIO
    TITLE "0:"
    INDEX 01 00:55:51
  TRACK 50 AUDIO
    TITLE "2:cjc114_2310"
    INDEX 01 00:56:27
  TRACK 51 AUDIO
    TITLE "0:"
    INDEX 01 00:57:45
  TRACK 52 AUDIO
    TITLE "3:cjc114_2311"
    INDEX 01 00:57:66
  TRACK 53 AUDIO
    TITLE "0:"
    INDEX 01 00:58:62
  TRACK 54 AUDIO
    TITLE "4:cjc114_2312"
    INDEX 01 00:59:12
  TRACK 55 AUDIO
    TITLE "0:"
    INDEX 01 01:02:42
  TRACK 56 AUDIO
    TITLE "2:cjc114_2313"
    INDEX 01 01:03:16
  TRACK 57 AUDIO
    TITLE "0:"
    INDEX 01 01:04:29
  TRACK 58 AUDIO
    TITLE "3:cjc114_2314"
    INDEX 01 01:04:54
  TRACK 59 AUDIO
    TITLE "0:"
    INDEX 01 01:06:18
  TRACK 60 AUDIO
    TITLE "4:cjc114_2315"
    INDEX 01 01:06:42
  TRACK 61 AUDIO
    TITLE "0:"
    INDEX 01 01:09:09
  TRACK 62 AUDIO
    TITLE "2:cjc114_2316"
    INDEX 01 01:09:56
  TRACK 63 AUDIO
    TITLE "0:"
    INDEX 01 01:10:67
  TRACK 64 AUDIO
    TITLE "3:cjc114_2317"
    INDEX 01 01:11:15
  TRACK 65 AUDIO
    TITLE "0:"
    INDEX 01 01:12:28
  TRACK 66 AUDIO
    TITLE "4:cjc114_2318"
    INDEX 01 01:12:52
  TRACK 67 AUDIO
    TITLE "0:"
    INDEX 01 01:16:28
  TRACK 68 AUDIO
    TITLE "2:cjc114_2319"
    INDEX 01 01:17:00
  TRACK 69 AUDIO
    TITLE "0:"
    INDEX 01 01:18:11
  TRACK 70 AUDIO
    TITLE "3:cjc114_2320"
    INDEX 01 01:18:35
  TRACK 71 AUDIO
    TITLE "0:"
    INDEX 01 01:19:72
  TRACK 72 AUDIO
    TITLE "4:cjc114_2321"
    INDEX 01 01:20:14
  TRACK 73 AUDIO
    TITLE "0:"
    INDEX 01 01:23:48
